<?xml version="1.0" standalone="no"?>
<!DOCTYPE svg PUBLIC "-//W3C//DTD SVG 1.1//EN" "http://www.w3.org/Graphics/SVG/1.1/DTD/svg11.dtd" >
<svg>
<metadata>
Created by FontForge 20120731 at Fri Mar  5 10:49:40 2021
 By ffonts
Typeface (c) (your company). 2018. All Rights Reserved
</metadata>
<defs>
<font id="IronFist" horiz-adv-x="1014" >
  <font-face 
    font-family="Iron Fist"
    font-weight="400"
    font-stretch="normal"
    units-per-em="2048"
    panose-1="2 0 5 0 0 0 0 0 0 0"
    ascent="1638"
    descent="-410"
    x-height="1393"
    cap-height="1393"
    bbox="-16 -385 1882 1843"
    underline-thickness="150"
    underline-position="-142"
    unicode-range="U+001D-F002"
  />
<missing-glyph horiz-adv-x="1024" 
d="M100 0v1434h824v-1434h-824zM150 50h724v1334h-724v-1334zM325 1148q31 28 58 43q53 30 112 30q92 0 148 -47.5t56 -127.5q0 -49 -23 -98.5t-87 -129.5q-63 -80 -99 -132t-36 -99q0 -38 24 -133h-32q-35 97 -35 148q0 76 81.5 218t81.5 217q0 57 -33 90t-91 33
q-38 0 -69 -17q-26 -15 -56 -40v45zM389 334l57 58q11 10 20 10q10 0 22 -11l56 -60q9 -11 9 -20q0 -11 -10 -22l-56 -62q-14 -14 -21 -14q-11 0 -20 10l-61 71q-7 9 -7 18q0 10 11 22z" />
    <glyph glyph-name=".notdef" horiz-adv-x="1024" 
d="M100 0v1434h824v-1434h-824zM150 50h724v1334h-724v-1334zM325 1148q31 28 58 43q53 30 112 30q92 0 148 -47.5t56 -127.5q0 -49 -23 -98.5t-87 -129.5q-63 -80 -99 -132t-36 -99q0 -38 24 -133h-32q-35 97 -35 148q0 76 81.5 218t81.5 217q0 57 -33 90t-91 33
q-38 0 -69 -17q-26 -15 -56 -40v45zM389 334l57 58q11 10 20 10q10 0 22 -11l56 -60q9 -11 9 -20q0 -11 -10 -22l-56 -62q-14 -14 -21 -14q-11 0 -20 10l-61 71q-7 9 -7 18q0 10 11 22z" />
    <glyph glyph-name=".null" horiz-adv-x="0" 
 />
    <glyph glyph-name=".null" horiz-adv-x="0" 
 />
    <glyph glyph-name="nonmarkingreturn" horiz-adv-x="508" 
 />
    <glyph glyph-name="space" unicode=" " horiz-adv-x="508" 
 />
    <glyph glyph-name="space" unicode="&#xa0;" horiz-adv-x="508" 
 />
    <glyph glyph-name="exclam" unicode="!" horiz-adv-x="471" 
d="M150 434l-31 959h233l-30 -959h-172zM236 -12q-57 0 -100.5 40t-43.5 103t43.5 103t100.5 40q56 0 99.5 -40t43.5 -103t-43.5 -103t-99.5 -40z" />
    <glyph glyph-name="quotedbl" unicode="&#x22;" horiz-adv-x="670" 
d="M403 979l-24 414h225l-24 -414h-177zM90 979l-24 414h225l-25 -414h-176z" />
    <glyph glyph-name="numbersign" unicode="#" horiz-adv-x="967" 
d="M248 727h-123v168h166l47 190h176l-49 -190h160l47 190h176l-49 -190h125v-168h-168l-39 -158h131l-6 -168h-168l-45 -178h-176l45 178h-158l-45 -178h-176l45 178h-121v168h164zM582 727h-160l-39 -158h158z" />
    <glyph glyph-name="dollar" unicode="$" horiz-adv-x="928" 
d="M397 -14q-140 19 -228.5 83.5t-133.5 143.5l162 106q31 -54 78 -96.5t122 -58.5v317q-168 58 -236.5 134.5t-68.5 197.5q0 117 78.5 195t226.5 92v174h150v-180q93 -16 157 -59t105 -105l-147 -109q-42 67 -115 94v-274q163 -51 244 -130.5t81 -207.5q0 -141 -82.5 -222
t-242.5 -95v-224h-150v224zM397 926q-57 -10 -81.5 -39t-24.5 -66q0 -24 7.5 -46t30.5 -42t68 -41v234zM547 162q70 13 98.5 47.5t28.5 83.5t-26.5 79.5t-100.5 57.5v-268z" />
    <glyph glyph-name="percent" unicode="%" horiz-adv-x="1374" 
d="M322 553q-76 0 -140.5 36t-103.5 98.5t-39 139.5q0 79 39 141t103.5 98t140.5 36q75 0 139.5 -36t103.5 -98t39 -141q0 -77 -39 -139.5t-103.5 -98.5t-139.5 -36zM322 721q41 0 70.5 29.5t29.5 76.5q0 48 -29.5 77.5t-70.5 29.5q-42 0 -72.5 -29.5t-30.5 -77.5
q0 -47 30.5 -76.5t72.5 -29.5zM262 0l633 1085h203l-633 -1085h-203zM1036 -18q-75 0 -139 36t-102.5 98t-38.5 140q0 79 38.5 141t102.5 97.5t139 35.5q76 0 140.5 -35.5t103.5 -97.5t39 -141q0 -78 -39 -140t-103.5 -98t-140.5 -36zM1036 150q43 0 73 29t30 77t-30 77
t-73 29q-41 0 -70.5 -29t-29.5 -77t29.5 -77t70.5 -29z" />
    <glyph glyph-name="ampersand" unicode="&#x26;" horiz-adv-x="1343" 
d="M690 795l266 -342q50 122 50 301h200q0 -143 -30 -262t-84 -211l219 -281h-262l-93 119q-169 -137 -387 -137q-158 0 -271 53t-172.5 145.5t-59.5 212.5q0 107 42.5 183t118 136.5t176.5 116.5q-60 78 -83 145.5t-23 133.5q0 82 39 151t112.5 110.5t176.5 41.5
q150 0 233.5 -83t83.5 -212q0 -95 -63.5 -172t-188.5 -149zM590 924q75 46 110 88.5t35 103.5q0 43 -27.5 77t-82.5 34q-60 0 -88.5 -35.5t-28.5 -83.5q0 -54 20.5 -94t53.5 -80zM838 270l-334 430q-116 -64 -163.5 -137t-47.5 -170q0 -100 71.5 -160.5t206.5 -60.5
q154 0 267 98z" />
    <glyph glyph-name="quotesingle" unicode="'" horiz-adv-x="436" 
d="M96 958l70 189q-34 15 -60 48t-26 79q0 60 42 98.5t97 38.5q54 0 95.5 -38.5t41.5 -96.5q0 -40 -12.5 -74.5t-34.5 -68.5l-108 -175h-105z" />
    <glyph glyph-name="parenleft" unicode="(" horiz-adv-x="627" 
d="M459 -281q-68 67 -132.5 153t-117 194t-84 240t-31.5 290q0 157 31.5 289t84 240t117 194.5t132.5 153.5l127 -105q-82 -96 -142.5 -209.5t-94.5 -252t-34 -310.5t34 -310.5t94.5 -252t142.5 -209.5z" />
    <glyph glyph-name="parenright" unicode=")" horiz-adv-x="627" 
d="M168 -281l-127 105q81 96 142 209.5t94.5 252t33.5 310.5t-33.5 310.5t-94.5 252t-142 209.5l127 105q68 -67 132.5 -153t116.5 -194t83.5 -240t31.5 -290q0 -157 -31.5 -289t-83.5 -240t-116.5 -194.5t-132.5 -153.5z" />
    <glyph glyph-name="asterisk" unicode="*" horiz-adv-x="1606" 
d="M752 1448h79q191 0 403 -155q264 -226 264 -556q0 -353 -275 -567q-67 -44 -79 -44q105 109 105 228v9q0 117 -102 166q-42 15 -79 15q-84 0 -138 -120h-6q-24 158 -41 158q-28 50 -67 50h-12q-79 0 -114 -170q-6 -37 -6 -70v-59q0 -117 38 -216h6v12q19 137 59 137h11
q73 0 120 -149q6 -31 6 -50q-8 -99 -55 -99h-21q-24 0 -70 17v-3q45 -163 132 -237q3 0 23 -23v-3q-72 22 -132 111q-43 65 -76 205q-102 131 -102 363q0 100 41 266v3q-54 0 -120 -114q-23 -55 -23 -106v-32h-3q-5 1 -27 73q-48 76 -90 76h-24q-64 0 -105 -70
q-9 -17 -9 -52q0 -183 263 -346q63 -33 117 -52v-3l-5 -3q-36 0 -188 64q-234 127 -330 378q-50 127 -50 289q0 178 123 366l6 3h3q-21 -59 -21 -108v-27q0 -112 103 -222q87 -64 196 -64h32q118 0 234 137q114 158 114 287q0 78 -35 99h-6q-60 0 -158 -93
q-85 -100 -85 -179l-6 -3q-14 26 -14 53q20 167 79 167q26 16 26 55v3l-3 21l6 3q15 -15 15 -41l-3 -12h3q87 79 157 79h27q50 0 70 -117v-26q0 -91 -97 -284q-20 -51 -20 -65v-17q19 -53 91 -53h14q194 0 258 187q17 57 17 109q0 268 -339 374q-90 21 -202 32v6q54 9 97 9z
M790 205q-27 -49 -27 -126q0 -41 33 -59q44 -29 67 -29t23 44v35q0 80 -79 132q-3 3 -17 3z" />
    <glyph glyph-name="plus" unicode="+" horiz-adv-x="1694" 
d="M712 1453h109q476 0 692 -543q20 -93 20 -149v-69q0 -333 -317 -603l-9 20q49 108 49 138v10q0 20 -20 20q-214 -178 -415 -178h-49q-294 0 -505 257h-10q0 -149 327 -336h10v-20h-10q-273 83 -396 277q-148 197 -148 455q0 205 129 375v-10q-10 -116 -10 -168
q10 -70 10 -79h9q75 259 248 366q155 109 326 109h69q91 0 257 -60h10v20q0 60 -386 139h-10v9q4 20 20 20zM346 722v-40q0 -278 337 -395q53 -10 89 -10h19q323 0 435 326q10 38 10 79v59q0 275 -336 396l-119 10q-313 0 -425 -336q-10 -37 -10 -89z" />
    <glyph glyph-name="comma" unicode="," horiz-adv-x="434" 
d="M82 -197l72 199q-36 17 -58 51t-22 78q0 63 43 103t100 40t100 -40t43 -103q0 -38 -15.5 -71t-37.5 -68l-112 -189h-113z" />
    <glyph glyph-name="hyphen" unicode="-" horiz-adv-x="512" 
d="M68 338v186h376v-186h-376z" />
    <glyph glyph-name="hyphen" unicode="&#xad;" horiz-adv-x="512" 
d="M68 338v186h376v-186h-376z" />
    <glyph glyph-name="period" unicode="." horiz-adv-x="434" 
d="M217 -12q-57 0 -100 40t-43 103t43 103t100 40t100 -40t43 -103t-43 -103t-100 -40z" />
    <glyph glyph-name="slash" unicode="/" horiz-adv-x="852" 
d="M-2 -262l588 1716h211l-588 -1716h-211z" />
    <glyph glyph-name="zero" unicode="0" horiz-adv-x="1085" 
d="M543 -18q-134 0 -243 69t-173 195.5t-64 296.5q0 171 64 296.5t173 194t243 68.5t242.5 -68.5t172.5 -194t64 -296.5q0 -170 -64 -296.5t-172.5 -195.5t-242.5 -69zM543 170q118 0 188 101t70 272q0 170 -70 270t-188 100q-119 0 -188.5 -100t-69.5 -270
q0 -171 69.5 -272t188.5 -101z" />
    <glyph glyph-name="one" unicode="1" horiz-adv-x="602" 
d="M229 0v905h-170v180h383v-1085h-213z" />
    <glyph glyph-name="two" unicode="2" horiz-adv-x="905" 
d="M4 0v10l387 422q11 11 21 22q54 58 96 108.5t66 99.5t24 104q0 64 -38 105.5t-114 41.5q-73 0 -124.5 -47t-73.5 -127l-187 72q47 140 150.5 215.5t237.5 75.5q116 0 198 -42.5t125 -117.5t43 -172q0 -71 -29.5 -136.5t-83 -134t-127.5 -147.5l-159 -172h420v-180h-832z
" />
    <glyph glyph-name="three" unicode="3" horiz-adv-x="954" 
d="M467 -18q-118 0 -205.5 41.5t-145 102.5t-83.5 124l180 92q35 -80 97.5 -128t156.5 -48q97 0 154 50t57 149q0 65 -34.5 107t-89 62.5t-116.5 20.5q-58 0 -98.5 -7.5t-69.5 -17.5l-16 31l278 344h-413v180h762v-10l-301 -379q83 -8 155 -50.5t117 -115t45 -170.5
q0 -104 -47.5 -190t-143 -137t-239.5 -51z" />
    <glyph glyph-name="four" unicode="4" horiz-adv-x="995" 
d="M799 365h141v-162h-141v-203h-207v203h-574v45l740 856h41v-739zM592 365v313l-266 -313h266z" />
    <glyph glyph-name="five" unicode="5" horiz-adv-x="918" 
d="M442 -18q-104 0 -186 35t-138 89t-83 113l178 92q30 -63 86 -104t143 -41q94 0 146.5 48.5t52.5 137.5t-59.5 133.5t-169.5 44.5q-68 0 -115.5 -11.5t-81.5 -29.5t-59 -36l-11 6v626h639v-180h-456v-209q20 7 55 12t86 5q169 0 280 -102.5t111 -262.5q0 -104 -46.5 -187
t-139 -131t-232.5 -48z" />
    <glyph glyph-name="six" unicode="6" horiz-adv-x="936" 
d="M469 -18q-111 0 -203 44t-147.5 127t-55.5 199q0 166 144 350l291 383h233l-289 -378q31 10 74 10q101 0 183 -46t130 -127t48 -188q0 -116 -55.5 -200t-148 -129t-204.5 -45zM469 166q89 0 139.5 54.5t50.5 135.5q0 82 -53 139.5t-139 57.5q-94 0 -141 -56t-47 -141
q0 -81 50.5 -135.5t139.5 -54.5z" />
    <glyph glyph-name="seven" unicode="7" horiz-adv-x="928" 
d="M150 0l430 905h-521v180h824v-10l-508 -1075h-225z" />
    <glyph glyph-name="eight" unicode="8" horiz-adv-x="913" 
d="M457 -18q-118 0 -207.5 44t-140 120.5t-50.5 172.5q0 102 54 171t143 106q-58 29 -96.5 82.5t-38.5 134.5q0 75 40.5 141t115.5 107t180 41q104 0 179.5 -41t116 -107t40.5 -141q0 -81 -38.5 -134.5t-97.5 -82.5q88 -37 143.5 -106t55.5 -171q0 -96 -50.5 -172.5
t-140.5 -120.5t-208 -44zM457 164q83 0 132.5 49.5t49.5 124.5t-49.5 124.5t-132.5 49.5t-133 -49.5t-50 -124.5t50 -124.5t133 -49.5zM457 682q53 0 88 35.5t35 89.5q0 52 -35 86.5t-88 34.5q-54 0 -88.5 -34.5t-34.5 -86.5q0 -54 34.5 -89.5t88.5 -35.5z" />
    <glyph glyph-name="nine" unicode="9" horiz-adv-x="936" 
d="M467 1104q111 0 203 -44t147 -127t55 -200q0 -166 -143 -350l-291 -383h-233l289 379q-31 -10 -74 -10q-102 0 -183.5 45.5t-129.5 127t-48 187.5q0 117 55.5 201t148 129t204.5 45zM467 920q-89 0 -140 -55t-51 -136t53.5 -139t139.5 -58q94 0 141 56.5t47 140.5
q0 81 -50.5 136t-139.5 55z" />
    <glyph glyph-name="colon" unicode=":" horiz-adv-x="455" 
d="M227 401q-57 0 -100 40.5t-43 103.5t43 103t100 40t100.5 -40t43.5 -103t-43.5 -103.5t-100.5 -40.5zM227 -12q-57 0 -100 40t-43 103t43 103t100 40t100.5 -40t43.5 -103t-43.5 -103t-100.5 -40z" />
    <glyph glyph-name="semicolon" unicode=";" horiz-adv-x="455" 
d="M227 401q-57 0 -100 40.5t-43 103.5t43 103t100 40t100.5 -40t43.5 -103t-43.5 -103.5t-100.5 -40.5zM92 -197l72 199q-36 17 -58 51t-22 78q0 63 43 103t100 40t100.5 -40t43.5 -103q0 -38 -15.5 -71t-38.5 -68l-112 -189h-113z" />
    <glyph glyph-name="semicolon" unicode="&#x37e;" horiz-adv-x="455" 
d="M227 401q-57 0 -100 40.5t-43 103.5t43 103t100 40t100.5 -40t43.5 -103t-43.5 -103.5t-100.5 -40.5zM92 -197l72 199q-36 17 -58 51t-22 78q0 63 43 103t100 40t100.5 -40t43.5 -103q0 -38 -15.5 -71t-38.5 -68l-112 -189h-113z" />
    <glyph glyph-name="less" unicode="&#x3c;" horiz-adv-x="664" 
d="M592 182l-539 314v8l539 309v-186l-225 -129l225 -129v-187z" />
    <glyph glyph-name="equal" unicode="=" horiz-adv-x="739" 
d="M74 571v185h592v-185h-592zM74 295v184h592v-184h-592z" />
    <glyph glyph-name="greater" unicode="&#x3e;" horiz-adv-x="664" 
d="M72 182v187l225 129l-225 129v186l538 -313v-8z" />
    <glyph glyph-name="question" unicode="?" horiz-adv-x="928" 
d="M319 424v369h74q91 0 146 31.5t79.5 82.5t24.5 109q0 54 -24 101t-69.5 76.5t-109.5 29.5q-60 0 -103.5 -20.5t-76 -56t-59.5 -81.5l-168 98q34 67 90 123t135 90.5t180 34.5q134 0 229.5 -54t146 -144t50.5 -197q0 -160 -86 -262.5t-258 -132.5v-197h-201zM418 -12
q-57 0 -100.5 40t-43.5 103t43.5 103t100.5 40t100 -40t43 -103t-43 -103t-100 -40z" />
    <glyph glyph-name="at" unicode="@" horiz-adv-x="1583" 
d="M834 -385q-226 0 -402.5 92.5t-278.5 257t-102 379.5q0 161 61 295t166 231t241 150t286 53q211 0 374.5 -86t257 -238t93.5 -350q0 -143 -40.5 -236.5t-111.5 -139.5t-164 -46q-181 0 -241 127q-43 -68 -102.5 -95t-139.5 -27q-87 0 -158.5 45t-114 123.5t-42.5 179.5
t42.5 180.5t114 125.5t158.5 46q75 0 120.5 -25t72.5 -67v74h206v-416q0 -60 23.5 -85.5t65.5 -25.5q33 0 63 27.5t49 84.5t19 146q0 166 -67.5 280.5t-191 173t-292.5 58.5q-164 0 -288 -71.5t-193.5 -198.5t-69.5 -293t70.5 -293t200.5 -198.5t308 -71.5q76 0 149.5 13.5
t137.5 45.5l82 -145q-77 -44 -169 -62t-193 -18zM778 160q72 0 110 45.5t38 124.5q0 80 -38 127t-110 47q-70 0 -107.5 -47t-37.5 -127q0 -79 37.5 -124.5t107.5 -45.5z" />
    <glyph glyph-name="A" unicode="A" horiz-adv-x="1321" 
d="M1047 0l-109 260h-565l-109 -260h-221l610 1421h13l612 -1421h-231zM657 940l-204 -487h405z" />
    <glyph glyph-name="B" unicode="B" horiz-adv-x="1204" 
d="M152 0v1393h495q138 0 230 -48.5t138 -130.5t46 -184q0 -104 -53.5 -182.5t-155.5 -110.5q127 -28 199.5 -112t72.5 -230q0 -112 -50 -201.5t-148.5 -141.5t-243.5 -52h-530zM369 188h301q120 0 178.5 62.5t58.5 161.5q0 103 -63.5 164t-186.5 61h-288v-449zM369 813h266
q109 0 160 55.5t51 141.5q0 87 -51 140.5t-164 53.5h-262v-391z" />
    <glyph glyph-name="C" unicode="C" horiz-adv-x="1454" 
d="M788 -18q-198 0 -357.5 92.5t-253 254t-93.5 367.5t95 367.5t256 254.5t360 93q193 0 330 -71t227 -199l-168 -119q-68 94 -162.5 142t-233.5 48q-138 0 -245.5 -67.5t-169.5 -184t-62 -264.5q0 -150 63 -266.5t172.5 -183t250.5 -66.5q135 0 237.5 51t179.5 152
l170 -117q-106 -143 -249.5 -213.5t-346.5 -70.5z" />
    <glyph glyph-name="D" unicode="D" horiz-adv-x="1362" 
d="M152 0v1393h393q227 0 391.5 -88.5t253 -245.5t88.5 -363t-88 -362.5t-252.5 -245t-392.5 -88.5h-393zM371 195h161q181 0 295.5 64t169 177t54.5 260q0 148 -54.5 261t-169 177t-295.5 64h-161v-1003z" />
    <glyph glyph-name="E" unicode="E" horiz-adv-x="1171" 
d="M152 0v1393h886v-195h-667v-399h592v-191h-592v-413h696v-195h-915z" />
    <glyph glyph-name="F" unicode="F" horiz-adv-x="1106" 
d="M152 0v1393h868v-195h-649v-438h592l-114 -195h-478v-565h-219z" />
    <glyph glyph-name="G" unicode="G" horiz-adv-x="1481" 
d="M829 -18q-214 0 -382.5 92.5t-265.5 254t-97 367.5t95.5 367.5t257.5 254.5t362 93q129 0 226.5 -28.5t171 -78t130.5 -114.5l-151 -143q-42 46 -92 83.5t-120 59.5t-171 22q-142 0 -250.5 -67.5t-170 -184t-61.5 -264.5q0 -147 63.5 -264t180 -184.5t274.5 -67.5
q114 0 196.5 24t141.5 64v281h-372v194h575v-579q-58 -49 -134 -90t-175.5 -66.5t-231.5 -25.5z" />
    <glyph glyph-name="H" unicode="H" horiz-adv-x="1409" 
d="M1038 776v617h219v-1393h-219v582h-667v-582h-219v1393h219v-617h667z" />
    <glyph glyph-name="I" unicode="I" horiz-adv-x="535" 
d="M158 0v1393h219v-1393h-219z" />
    <glyph glyph-name="J" unicode="J" horiz-adv-x="973" 
d="M434 -18q-106 0 -184 32t-132 85.5t-87 119.5l180 111q24 -45 52 -78.5t67 -52.5t96 -19q53 0 94 19.5t64.5 66t23.5 129.5v998h221v-1002q0 -138 -51 -229t-140 -135.5t-204 -44.5z" />
    <glyph glyph-name="K" unicode="K" horiz-adv-x="1262" 
d="M1165 1393l-493 -598l563 -795h-266l-443 629l-155 -185v-444h-219v1393h219v-674l549 674h245z" />
    <glyph glyph-name="L" unicode="L" horiz-adv-x="1055" 
d="M152 0v1393h219v-1198h614v-195h-833z" />
    <glyph glyph-name="M" unicode="M" horiz-adv-x="1675" 
d="M152 0v1421h10l680 -784l671 784h11v-1421h-207v903l-475 -567h-11l-473 567v-762z" />
    <glyph glyph-name="N" unicode="N" horiz-adv-x="1415" 
d="M1249 -20l-893 935v-774l-204 -141v1413h16l893 -936v916h205v-1413h-17z" />
    <glyph glyph-name="O" unicode="O" horiz-adv-x="1606" 
d="M803 -18q-200 0 -363 92.5t-259.5 254t-96.5 367.5t96.5 367.5t259.5 254.5t363 93q199 0 362.5 -93t260 -254.5t96.5 -367.5t-96.5 -367.5t-260 -254t-362.5 -92.5zM803 180q144 0 255 67.5t173.5 184.5t62.5 264q0 148 -62.5 264.5t-173.5 184t-255 67.5
q-145 0 -255.5 -67.5t-173.5 -184t-63 -264.5q0 -147 63 -264t173.5 -184.5t255.5 -67.5z" />
    <glyph glyph-name="P" unicode="P" horiz-adv-x="1182" 
d="M371 492v-492h-219v1393h442q163 0 277.5 -56.5t174.5 -158t60 -236.5q0 -207 -134.5 -328.5t-377.5 -121.5h-223zM371 686h215q155 0 224 64.5t69 191.5q0 129 -70 192.5t-223 63.5h-215v-512z" />
    <glyph glyph-name="Q" unicode="Q" horiz-adv-x="1606" 
d="M907 -10v-244h-209v244q-176 26 -314.5 121.5t-219 246.5t-80.5 338q0 206 96.5 367t259.5 253.5t363 92.5q199 0 362.5 -92.5t260 -253.5t96.5 -367q0 -187 -81 -338t-219 -246.5t-315 -121.5zM698 184v224h209v-224q176 38 281.5 176t105.5 336q0 148 -62.5 264
t-173.5 183t-255 67q-145 0 -255.5 -67t-173.5 -183t-63 -264q0 -198 105.5 -336t281.5 -176z" />
    <glyph glyph-name="R" unicode="R" horiz-adv-x="1225" 
d="M371 514v-514h-219v1393h446q163 0 277.5 -55.5t174.5 -155.5t60 -232q0 -292 -270 -397l336 -553h-240l-311 514h-27h-227zM371 702h219q155 0 224 62t69 186q0 126 -70 187t-223 61h-219v-496z" />
    <glyph glyph-name="S" unicode="S" horiz-adv-x="1087" 
d="M45 274l184 93q101 -189 316 -189q110 0 178 49t68 133q0 66 -30.5 108t-81 71.5t-112.5 56.5l-96 43q-103 44 -180.5 98t-121.5 128.5t-44 183.5q0 159 110.5 260.5t288.5 101.5q145 0 245 -54.5t165 -164.5l-166 -109q-40 68 -98.5 102t-141.5 34q-89 0 -139.5 -45
t-50.5 -117q0 -83 54 -126.5t167 -90.5l96 -43q106 -46 185 -101t123.5 -133.5t44.5 -195.5q0 -128 -60.5 -214t-164.5 -128.5t-236 -42.5q-178 0 -304.5 78.5t-197.5 213.5z" />
    <glyph glyph-name="T" unicode="T" horiz-adv-x="1145" 
d="M463 0v1198h-414v195h1047v-195h-414v-1054z" />
    <glyph glyph-name="U" unicode="U" horiz-adv-x="1350" 
d="M676 -18q-152 0 -272.5 56.5t-190.5 170t-70 283.5v901h219v-889q0 -168 81 -246t233 -78q150 0 230.5 78t80.5 246v889h219v-901q0 -170 -70 -283.5t-190 -170t-270 -56.5z" />
    <glyph glyph-name="V" unicode="V" horiz-adv-x="1321" 
d="M664 -20l-621 1413h231l398 -936l385 936h221l-602 -1413h-12z" />
    <glyph glyph-name="W" unicode="W" horiz-adv-x="1925" 
d="M539 -18l-498 1411h231l299 -889l394 917h12l395 -917l293 889h217l-487 -1411h-13l-411 970l-422 -970h-10z" />
    <glyph glyph-name="X" unicode="X" horiz-adv-x="1313" 
d="M532 756l-401 637h248l278 -441l279 441h231l-395 -623l488 -770h-248l-363 573l-362 -573h-232z" />
    <glyph glyph-name="Y" unicode="Y" horiz-adv-x="1260" 
d="M526 555l-485 838h242l356 -625l350 625h230l-474 -836v-557h-219v555z" />
    <glyph glyph-name="Z" unicode="Z" horiz-adv-x="1225" 
d="M59 0v12l736 1186h-623v195h975v-13l-735 -1185h712v-195h-1065z" />
    <glyph glyph-name="bracketleft" unicode="[" horiz-adv-x="758" 
 />
    <glyph glyph-name="backslash" unicode="\" horiz-adv-x="569" 
 />
    <glyph glyph-name="bracketright" unicode="]" horiz-adv-x="758" 
 />
    <glyph glyph-name="asciicircum" unicode="^" 
 />
    <glyph glyph-name="underscore" unicode="_" horiz-adv-x="1024" 
 />
    <glyph glyph-name="grave" unicode="`" horiz-adv-x="1024" 
 />
    <glyph glyph-name="a" unicode="a" horiz-adv-x="1321" 
d="M1047 0l-109 260h-565l-109 -260h-221l610 1421h13l612 -1421h-231zM657 940l-204 -487h405z" />
    <glyph glyph-name="b" unicode="b" horiz-adv-x="1204" 
d="M152 0v1393h495q138 0 230 -48.5t138 -130.5t46 -184q0 -104 -53.5 -182.5t-155.5 -110.5q127 -28 199.5 -112t72.5 -230q0 -112 -50 -201.5t-148.5 -141.5t-243.5 -52h-530zM369 188h301q120 0 178.5 62.5t58.5 161.5q0 103 -63.5 164t-186.5 61h-288v-449zM369 813h266
q109 0 160 55.5t51 141.5q0 87 -51 140.5t-164 53.5h-262v-391z" />
    <glyph glyph-name="c" unicode="c" horiz-adv-x="1454" 
d="M788 -18q-198 0 -357.5 92.5t-253 254t-93.5 367.5t95 367.5t256 254.5t360 93q193 0 330 -71t227 -199l-168 -119q-68 94 -162.5 142t-233.5 48q-138 0 -245.5 -67.5t-169.5 -184t-62 -264.5q0 -150 63 -266.5t172.5 -183t250.5 -66.5q135 0 237.5 51t179.5 152
l170 -117q-106 -143 -249.5 -213.5t-346.5 -70.5z" />
    <glyph glyph-name="d" unicode="d" horiz-adv-x="1362" 
d="M152 0v1393h393q227 0 391.5 -88.5t253 -245.5t88.5 -363t-88 -362.5t-252.5 -245t-392.5 -88.5h-393zM371 195h161q181 0 295.5 64t169 177t54.5 260q0 148 -54.5 261t-169 177t-295.5 64h-161v-1003z" />
    <glyph glyph-name="e" unicode="e" horiz-adv-x="1171" 
d="M152 0v1393h886v-195h-667v-399h592v-191h-592v-413h696v-195h-915z" />
    <glyph glyph-name="f" unicode="f" horiz-adv-x="1106" 
d="M152 0v1393h868v-195h-649v-438h592l-114 -195h-478v-565h-219z" />
    <glyph glyph-name="g" unicode="g" horiz-adv-x="1481" 
d="M829 -18q-214 0 -382.5 92.5t-265.5 254t-97 367.5t95.5 367.5t257.5 254.5t362 93q129 0 226.5 -28.5t171 -78t130.5 -114.5l-151 -143q-42 46 -92 83.5t-120 59.5t-171 22q-142 0 -250.5 -67.5t-170 -184t-61.5 -264.5q0 -147 63.5 -264t180 -184.5t274.5 -67.5
q114 0 196.5 24t141.5 64v281h-372v194h575v-579q-58 -49 -134 -90t-175.5 -66.5t-231.5 -25.5z" />
    <glyph glyph-name="h" unicode="h" horiz-adv-x="1409" 
d="M1038 776v617h219v-1393h-219v582h-667v-582h-219v1393h219v-617h667z" />
    <glyph glyph-name="i" unicode="i" horiz-adv-x="535" 
d="M158 0v1393h219v-1393h-219z" />
    <glyph glyph-name="j" unicode="j" horiz-adv-x="973" 
d="M434 -18q-106 0 -184 32t-132 85.5t-87 119.5l180 111q24 -45 52 -78.5t67 -52.5t96 -19q53 0 94 19.5t64.5 66t23.5 129.5v998h221v-1002q0 -138 -51 -229t-140 -135.5t-204 -44.5z" />
    <glyph glyph-name="k" unicode="k" horiz-adv-x="1262" 
d="M1165 1393l-493 -598l563 -795h-266l-443 629l-155 -185v-444h-219v1393h219v-674l549 674h245z" />
    <glyph glyph-name="l" unicode="l" horiz-adv-x="1055" 
d="M152 0v1393h219v-1198h614v-195h-833z" />
    <glyph glyph-name="m" unicode="m" horiz-adv-x="1675" 
d="M152 0v1421h10l680 -784l671 784h11v-1421h-207v903l-475 -567h-11l-473 567v-762z" />
    <glyph glyph-name="n" unicode="n" horiz-adv-x="1415" 
d="M1249 -20l-893 935v-774l-204 -141v1413h16l893 -936v916h205v-1413h-17z" />
    <glyph glyph-name="o" unicode="o" horiz-adv-x="1606" 
d="M803 -18q-200 0 -363 92.5t-259.5 254t-96.5 367.5t96.5 367.5t259.5 254.5t363 93q199 0 362.5 -93t260 -254.5t96.5 -367.5t-96.5 -367.5t-260 -254t-362.5 -92.5zM803 180q144 0 255 67.5t173.5 184.5t62.5 264q0 148 -62.5 264.5t-173.5 184t-255 67.5
q-145 0 -255.5 -67.5t-173.5 -184t-63 -264.5q0 -147 63 -264t173.5 -184.5t255.5 -67.5z" />
    <glyph glyph-name="p" unicode="p" horiz-adv-x="1182" 
d="M371 492v-492h-219v1393h442q163 0 277.5 -56.5t174.5 -158t60 -236.5q0 -207 -134.5 -328.5t-377.5 -121.5h-223zM371 686h215q155 0 224 64.5t69 191.5q0 129 -70 192.5t-223 63.5h-215v-512z" />
    <glyph glyph-name="q" unicode="q" horiz-adv-x="1606" 
d="M907 -10v-244h-209v244q-176 26 -314.5 121.5t-219 246.5t-80.5 338q0 206 96.5 367t259.5 253.5t363 92.5q199 0 362.5 -92.5t260 -253.5t96.5 -367q0 -187 -81 -338t-219 -246.5t-315 -121.5zM698 184v224h209v-224q176 38 281.5 176t105.5 336q0 148 -62.5 264
t-173.5 183t-255 67q-145 0 -255.5 -67t-173.5 -183t-63 -264q0 -198 105.5 -336t281.5 -176z" />
    <glyph glyph-name="r" unicode="r" horiz-adv-x="1225" 
d="M371 514v-514h-219v1393h446q163 0 277.5 -55.5t174.5 -155.5t60 -232q0 -292 -270 -397l336 -553h-240l-311 514h-27h-227zM371 702h219q155 0 224 62t69 186q0 126 -70 187t-223 61h-219v-496z" />
    <glyph glyph-name="s" unicode="s" horiz-adv-x="1087" 
d="M45 274l184 93q101 -189 316 -189q110 0 178 49t68 133q0 66 -30.5 108t-81 71.5t-112.5 56.5l-96 43q-103 44 -180.5 98t-121.5 128.5t-44 183.5q0 159 110.5 260.5t288.5 101.5q145 0 245 -54.5t165 -164.5l-166 -109q-40 68 -98.5 102t-141.5 34q-89 0 -139.5 -45
t-50.5 -117q0 -83 54 -126.5t167 -90.5l96 -43q106 -46 185 -101t123.5 -133.5t44.5 -195.5q0 -128 -60.5 -214t-164.5 -128.5t-236 -42.5q-178 0 -304.5 78.5t-197.5 213.5z" />
    <glyph glyph-name="t" unicode="t" horiz-adv-x="1145" 
d="M463 0v1198h-414v195h1047v-195h-414v-1054z" />
    <glyph glyph-name="u" unicode="u" horiz-adv-x="1350" 
d="M676 -18q-152 0 -272.5 56.5t-190.5 170t-70 283.5v901h219v-889q0 -168 81 -246t233 -78q150 0 230.5 78t80.5 246v889h219v-901q0 -170 -70 -283.5t-190 -170t-270 -56.5z" />
    <glyph glyph-name="v" unicode="v" horiz-adv-x="1321" 
d="M664 -20l-621 1413h231l398 -936l385 936h221l-602 -1413h-12z" />
    <glyph glyph-name="w" unicode="w" horiz-adv-x="1925" 
d="M539 -18l-498 1411h231l299 -889l394 917h12l395 -917l293 889h217l-487 -1411h-13l-411 970l-422 -970h-10z" />
    <glyph glyph-name="x" unicode="x" horiz-adv-x="1313" 
d="M532 756l-401 637h248l278 -441l279 441h231l-395 -623l488 -770h-248l-363 573l-362 -573h-232z" />
    <glyph glyph-name="y" unicode="y" horiz-adv-x="1260" 
d="M526 555l-485 838h242l356 -625l350 625h230l-474 -836v-557h-219v555z" />
    <glyph glyph-name="z" unicode="z" horiz-adv-x="1225" 
d="M59 0v12l736 1186h-623v195h975v-13l-735 -1185h712v-195h-1065z" />
    <glyph glyph-name="braceleft" unicode="{" 
 />
    <glyph glyph-name="bar" unicode="|" 
 />
    <glyph glyph-name="braceright" unicode="}" 
 />
    <glyph glyph-name="asciitilde" unicode="~" 
 />
    <glyph glyph-name="exclamdown" unicode="&#xa1;" horiz-adv-x="672" 
 />
    <glyph glyph-name="cent" unicode="&#xa2;" horiz-adv-x="1139" 
 />
    <glyph glyph-name="sterling" unicode="&#xa3;" 
 />
    <glyph glyph-name="currency" unicode="&#xa4;" 
 />
    <glyph glyph-name="yen" unicode="&#xa5;" horiz-adv-x="1262" 
 />
    <glyph glyph-name="brokenbar" unicode="&#xa6;" 
 />
    <glyph glyph-name="section" unicode="&#xa7;" 
 />
    <glyph glyph-name="dieresis" unicode="&#xa8;" horiz-adv-x="1024" 
 />
    <glyph glyph-name="copyright" unicode="&#xa9;" horiz-adv-x="1674" 
 />
    <glyph glyph-name="ordfeminine" unicode="&#xaa;" horiz-adv-x="648" 
 />
    <glyph glyph-name="guillemotleft" unicode="&#xab;" horiz-adv-x="944" 
 />
    <glyph glyph-name="logicalnot" unicode="&#xac;" 
 />
    <glyph glyph-name="registered" unicode="&#xae;" horiz-adv-x="1674" 
 />
    <glyph glyph-name="macron" unicode="&#xaf;" horiz-adv-x="670" 
 />
    <glyph glyph-name="degree" unicode="&#xb0;" horiz-adv-x="674" 
 />
    <glyph glyph-name="plusminus" unicode="&#xb1;" 
 />
    <glyph glyph-name="uni00B2" unicode="&#xb2;" 
 />
    <glyph glyph-name="uni00B3" unicode="&#xb3;" 
 />
    <glyph glyph-name="acute" unicode="&#xb4;" horiz-adv-x="1024" 
 />
    <glyph glyph-name="mu" unicode="&#xb5;" horiz-adv-x="1180" 
 />
    <glyph glyph-name="paragraph" unicode="&#xb6;" horiz-adv-x="1024" 
 />
    <glyph glyph-name="periodcentered" unicode="&#xb7;" horiz-adv-x="508" 
 />
    <glyph glyph-name="periodcentered" unicode="&#x2219;" horiz-adv-x="508" 
 />
    <glyph glyph-name="cedilla" unicode="&#xb8;" horiz-adv-x="1024" 
 />
    <glyph glyph-name="uni00B9" unicode="&#xb9;" 
 />
    <glyph glyph-name="ordmasculine" unicode="&#xba;" horiz-adv-x="718" 
 />
    <glyph glyph-name="guillemotright" unicode="&#xbb;" horiz-adv-x="944" 
 />
    <glyph glyph-name="onequarter" unicode="&#xbc;" horiz-adv-x="1708" 
 />
    <glyph glyph-name="onehalf" unicode="&#xbd;" horiz-adv-x="1964" 
 />
    <glyph glyph-name="threequarters" unicode="&#xbe;" horiz-adv-x="1708" 
 />
    <glyph glyph-name="questiondown" unicode="&#xbf;" horiz-adv-x="748" 
 />
    <glyph glyph-name="Agrave" unicode="&#xc0;" horiz-adv-x="1321" 
d="M1047 0l-109 260h-565l-109 -260h-221l610 1421h13l612 -1421h-231zM657 940l-204 -487h405zM586 1487l-174 311h231l102 -311h-159z" />
    <glyph glyph-name="Aacute" unicode="&#xc1;" horiz-adv-x="1321" 
d="M1047 0l-109 260h-565l-109 -260h-221l610 1421h13l612 -1421h-231zM657 940l-204 -487h405zM580 1487l102 311h231l-174 -311h-159z" />
    <glyph glyph-name="Acircumflex" unicode="&#xc2;" horiz-adv-x="1321" 
d="M1047 0l-109 260h-565l-109 -260h-221l610 1421h13l612 -1421h-231zM657 940l-204 -487h405zM391 1493l264 311h11l264 -311h-162l-106 88l-109 -88h-162z" />
    <glyph glyph-name="Atilde" unicode="&#xc3;" horiz-adv-x="1321" 
d="M1047 0l-109 260h-565l-109 -260h-221l610 1421h13l612 -1421h-231zM782 1513q-43 0 -80 10.5t-68 22.5q-23 9 -43 15t-38 6q-25 0 -38 -13t-21 -47l-140 19q15 96 62.5 152.5t120.5 56.5q43 0 79.5 -10.5t68.5 -22.5q23 -8 43 -14.5t38 -6.5q25 0 38 13.5t21 46.5
l140 -19q-15 -96 -62.5 -152.5t-120.5 -56.5zM657 940l-204 -487h405z" />
    <glyph glyph-name="Adieresis" unicode="&#xc4;" horiz-adv-x="1321" 
d="M1047 0l-109 260h-565l-109 -260h-221l610 1421h13l612 -1421h-231zM657 940l-204 -487h405zM825 1487q-44 0 -80 33.5t-36 83.5q0 49 36 82.5t80 33.5q46 0 81.5 -33.5t35.5 -82.5q0 -50 -35.5 -83.5t-81.5 -33.5zM494 1487q-45 0 -81 33.5t-36 83.5q0 49 36 82.5
t81 33.5q46 0 81 -33.5t35 -82.5q0 -50 -35 -83.5t-81 -33.5z" />
    <glyph glyph-name="Aring" unicode="&#xc5;" horiz-adv-x="1321" 
d="M1047 0l-109 260h-565l-109 -260h-221l610 1421h13l612 -1421h-231zM659 1477q-78 0 -136 54t-58 128q0 75 58 129.5t136 54.5q79 0 137 -54.5t58 -129.5q0 -74 -58 -128t-137 -54zM657 940l-204 -487h405zM659 1587q30 0 49 19t19 53q0 67 -68 74q-29 0 -48 -20t-19 -54
t19 -53t48 -19z" />
    <glyph glyph-name="AE" unicode="&#xc6;" horiz-adv-x="2118" 
 />
    <glyph glyph-name="Ccedilla" unicode="&#xc7;" horiz-adv-x="1399" 
 />
    <glyph glyph-name="Egrave" unicode="&#xc8;" horiz-adv-x="1171" 
d="M152 0v1393h886v-195h-667v-399h592v-191h-592v-413h696v-195h-915zM547 1487l-174 311h231l103 -311h-160z" />
    <glyph glyph-name="Eacute" unicode="&#xc9;" horiz-adv-x="1171" 
d="M152 0v1393h886v-195h-667v-399h592v-191h-592v-413h696v-195h-915zM541 1487l102 311h231l-174 -311h-159z" />
    <glyph glyph-name="Ecircumflex" unicode="&#xca;" horiz-adv-x="1171" 
d="M152 0v1393h886v-195h-667v-399h592v-191h-592v-413h696v-195h-915zM352 1493l264 311h11l264 -311h-162l-106 88l-109 -88h-162z" />
    <glyph glyph-name="Edieresis" unicode="&#xcb;" horiz-adv-x="1171" 
d="M152 0v1393h886v-195h-667v-399h592v-191h-592v-413h696v-195h-915zM786 1487q-44 0 -80 33.5t-36 83.5q0 49 36 82.5t80 33.5q47 0 82 -33.5t35 -82.5q0 -50 -35 -83.5t-82 -33.5zM455 1487q-45 0 -81 33.5t-36 83.5q0 49 36 82.5t81 33.5q46 0 81 -33.5t35 -82.5
q0 -50 -35 -83.5t-81 -33.5z" />
    <glyph glyph-name="Igrave" unicode="&#xcc;" horiz-adv-x="535" 
d="M158 0v1393h219v-1393h-219zM193 1487l-175 311h232l102 -311h-159z" />
    <glyph glyph-name="Iacute" unicode="&#xcd;" horiz-adv-x="535" 
d="M158 0v1393h219v-1393h-219zM186 1487l103 311h231l-174 -311h-160z" />
    <glyph glyph-name="Icircumflex" unicode="&#xce;" horiz-adv-x="535" 
d="M158 0v1393h219v-1393h-219zM-2 1493l264 311h10l265 -311h-162l-107 88l-108 -88h-162z" />
    <glyph glyph-name="Idieresis" unicode="&#xcf;" horiz-adv-x="535" 
d="M158 0v1393h219v-1393h-219zM432 1487q-44 0 -80.5 33.5t-36.5 83.5q0 49 36.5 82.5t80.5 33.5q46 0 81.5 -33.5t35.5 -82.5q0 -50 -35.5 -83.5t-81.5 -33.5zM100 1487q-44 0 -80 33.5t-36 83.5q0 49 36 82.5t80 33.5q46 0 81.5 -33.5t35.5 -82.5q0 -50 -35.5 -83.5
t-81.5 -33.5z" />
    <glyph glyph-name="Eth" unicode="&#xd0;" horiz-adv-x="1518" 
 />
    <glyph glyph-name="Ntilde" unicode="&#xd1;" horiz-adv-x="1415" 
d="M840 1513q-44 0 -80.5 10.5t-67.5 22.5q-23 9 -43.5 15t-38.5 6q-24 0 -37 -13t-22 -47l-139 19q14 96 62 152.5t120 56.5q43 0 80 -10.5t68 -22.5q23 -8 43.5 -14.5t37.5 -6.5q25 0 38 13.5t22 46.5l139 -19q-15 -96 -62.5 -152.5t-119.5 -56.5zM1249 -20l-893 935v-774
l-204 -141v1413h16l893 -936v916h205v-1413h-17z" />
    <glyph glyph-name="Ograve" unicode="&#xd2;" horiz-adv-x="1606" 
d="M803 -18q-200 0 -363 92.5t-259.5 254t-96.5 367.5t96.5 367.5t259.5 254.5t363 93q199 0 362.5 -93t260 -254.5t96.5 -367.5t-96.5 -367.5t-260 -254t-362.5 -92.5zM803 180q144 0 255 67.5t173.5 184.5t62.5 264q0 148 -62.5 264.5t-173.5 184t-255 67.5
q-145 0 -255.5 -67.5t-173.5 -184t-63 -264.5q0 -147 63 -264t173.5 -184.5t255.5 -67.5zM729 1487l-174 311h231l103 -311h-160z" />
    <glyph glyph-name="Oacute" unicode="&#xd3;" horiz-adv-x="1606" 
d="M803 -18q-200 0 -363 92.5t-259.5 254t-96.5 367.5t96.5 367.5t259.5 254.5t363 93q199 0 362.5 -93t260 -254.5t96.5 -367.5t-96.5 -367.5t-260 -254t-362.5 -92.5zM803 180q144 0 255 67.5t173.5 184.5t62.5 264q0 148 -62.5 264.5t-173.5 184t-255 67.5
q-145 0 -255.5 -67.5t-173.5 -184t-63 -264.5q0 -147 63 -264t173.5 -184.5t255.5 -67.5zM723 1487l102 311h232l-174 -311h-160z" />
    <glyph glyph-name="Ocircumflex" unicode="&#xd4;" horiz-adv-x="1606" 
d="M803 -18q-200 0 -363 92.5t-259.5 254t-96.5 367.5t96.5 367.5t259.5 254.5t363 93q199 0 362.5 -93t260 -254.5t96.5 -367.5t-96.5 -367.5t-260 -254t-362.5 -92.5zM803 180q144 0 255 67.5t173.5 184.5t62.5 264q0 148 -62.5 264.5t-173.5 184t-255 67.5
q-145 0 -255.5 -67.5t-173.5 -184t-63 -264.5q0 -147 63 -264t173.5 -184.5t255.5 -67.5zM535 1493l264 311h10l264 -311h-162l-106 88l-109 -88h-161z" />
    <glyph glyph-name="Otilde" unicode="&#xd5;" horiz-adv-x="1606" 
d="M918 1513q-44 0 -80.5 10.5t-68.5 22.5q-23 9 -43 15t-38 6q-24 0 -37.5 -13t-21.5 -47l-140 19q15 96 63 152.5t120 56.5q43 0 80 -10.5t68 -22.5q23 -8 43 -14.5t38 -6.5q25 0 38 13.5t22 46.5l139 -19q-15 -96 -62.5 -152.5t-119.5 -56.5zM803 -18q-200 0 -363 92.5
t-259.5 254t-96.5 367.5t96.5 367.5t259.5 254.5t363 93q199 0 362.5 -93t260 -254.5t96.5 -367.5t-96.5 -367.5t-260 -254t-362.5 -92.5zM803 180q144 0 255 67.5t173.5 184.5t62.5 264q0 148 -62.5 264.5t-173.5 184t-255 67.5q-145 0 -255.5 -67.5t-173.5 -184
t-63 -264.5q0 -147 63 -264t173.5 -184.5t255.5 -67.5z" />
    <glyph glyph-name="Odieresis" unicode="&#xd6;" horiz-adv-x="1606" 
d="M803 -18q-200 0 -363 92.5t-259.5 254t-96.5 367.5t96.5 367.5t259.5 254.5t363 93q199 0 362.5 -93t260 -254.5t96.5 -367.5t-96.5 -367.5t-260 -254t-362.5 -92.5zM803 180q144 0 255 67.5t173.5 184.5t62.5 264q0 148 -62.5 264.5t-173.5 184t-255 67.5
q-145 0 -255.5 -67.5t-173.5 -184t-63 -264.5q0 -147 63 -264t173.5 -184.5t255.5 -67.5zM969 1487q-45 0 -81 33.5t-36 83.5q0 49 36 82.5t81 33.5q46 0 81 -33.5t35 -82.5q0 -50 -35 -83.5t-81 -33.5zM637 1487q-45 0 -81 33.5t-36 83.5q0 49 36 82.5t81 33.5
q46 0 81.5 -33.5t35.5 -82.5q0 -50 -35.5 -83.5t-81.5 -33.5z" />
    <glyph glyph-name="multiply" unicode="&#xd7;" 
 />
    <glyph glyph-name="Oslash" unicode="&#xd8;" horiz-adv-x="1614" 
 />
    <glyph glyph-name="Ugrave" unicode="&#xd9;" horiz-adv-x="1350" 
d="M676 -18q-152 0 -272.5 56.5t-190.5 170t-70 283.5v901h219v-889q0 -168 81 -246t233 -78q150 0 230.5 78t80.5 246v889h219v-901q0 -170 -70 -283.5t-190 -170t-270 -56.5zM600 1487l-174 311h231l103 -311h-160z" />
    <glyph glyph-name="Uacute" unicode="&#xda;" horiz-adv-x="1350" 
d="M676 -18q-152 0 -272.5 56.5t-190.5 170t-70 283.5v901h219v-889q0 -168 81 -246t233 -78q150 0 230.5 78t80.5 246v889h219v-901q0 -170 -70 -283.5t-190 -170t-270 -56.5zM594 1487l102 311h232l-174 -311h-160z" />
    <glyph glyph-name="Ucircumflex" unicode="&#xdb;" horiz-adv-x="1350" 
d="M676 -18q-152 0 -272.5 56.5t-190.5 170t-70 283.5v901h219v-889q0 -168 81 -246t233 -78q150 0 230.5 78t80.5 246v889h219v-901q0 -170 -70 -283.5t-190 -170t-270 -56.5zM406 1493l264 311h10l264 -311h-162l-106 88l-109 -88h-161z" />
    <glyph glyph-name="Udieresis" unicode="&#xdc;" horiz-adv-x="1350" 
d="M676 -18q-152 0 -272.5 56.5t-190.5 170t-70 283.5v901h219v-889q0 -168 81 -246t233 -78q150 0 230.5 78t80.5 246v889h219v-901q0 -170 -70 -283.5t-190 -170t-270 -56.5zM840 1487q-45 0 -81 33.5t-36 83.5q0 49 36 82.5t81 33.5q46 0 81 -33.5t35 -82.5
q0 -50 -35 -83.5t-81 -33.5zM508 1487q-45 0 -81 33.5t-36 83.5q0 49 36 82.5t81 33.5q46 0 81.5 -33.5t35.5 -82.5q0 -50 -35.5 -83.5t-81.5 -33.5z" />
    <glyph glyph-name="Yacute" unicode="&#xdd;" horiz-adv-x="1233" 
 />
    <glyph glyph-name="Thorn" unicode="&#xde;" horiz-adv-x="1120" 
 />
    <glyph glyph-name="germandbls" unicode="&#xdf;" horiz-adv-x="1251" 
 />
    <glyph glyph-name="agrave" unicode="&#xe0;" horiz-adv-x="1321" 
d="M1047 0l-109 260h-565l-109 -260h-221l610 1421h13l612 -1421h-231zM657 940l-204 -487h405zM586 1487l-174 311h231l102 -311h-159z" />
    <glyph glyph-name="aacute" unicode="&#xe1;" horiz-adv-x="1321" 
d="M1047 0l-109 260h-565l-109 -260h-221l610 1421h13l612 -1421h-231zM657 940l-204 -487h405zM580 1487l102 311h231l-174 -311h-159z" />
    <glyph glyph-name="acircumflex" unicode="&#xe2;" horiz-adv-x="1321" 
d="M1047 0l-109 260h-565l-109 -260h-221l610 1421h13l612 -1421h-231zM657 940l-204 -487h405zM391 1493l264 311h11l264 -311h-162l-106 88l-109 -88h-162z" />
    <glyph glyph-name="atilde" unicode="&#xe3;" horiz-adv-x="1321" 
d="M1047 0l-109 260h-565l-109 -260h-221l610 1421h13l612 -1421h-231zM782 1513q-43 0 -80 10.5t-68 22.5q-23 9 -43 15t-38 6q-25 0 -38 -13t-21 -47l-140 19q15 96 62.5 152.5t120.5 56.5q43 0 79.5 -10.5t68.5 -22.5q23 -8 43 -14.5t38 -6.5q25 0 38 13.5t21 46.5
l140 -19q-15 -96 -62.5 -152.5t-120.5 -56.5zM657 940l-204 -487h405z" />
    <glyph glyph-name="adieresis" unicode="&#xe4;" horiz-adv-x="1321" 
d="M1047 0l-109 260h-565l-109 -260h-221l610 1421h13l612 -1421h-231zM657 940l-204 -487h405zM825 1487q-44 0 -80 33.5t-36 83.5q0 49 36 82.5t80 33.5q46 0 81.5 -33.5t35.5 -82.5q0 -50 -35.5 -83.5t-81.5 -33.5zM494 1487q-45 0 -81 33.5t-36 83.5q0 49 36 82.5
t81 33.5q46 0 81 -33.5t35 -82.5q0 -50 -35 -83.5t-81 -33.5z" />
    <glyph glyph-name="aring" unicode="&#xe5;" horiz-adv-x="1321" 
d="M1047 0l-109 260h-565l-109 -260h-221l610 1421h13l612 -1421h-231zM659 1477q-78 0 -136 54t-58 128q0 75 58 129.5t136 54.5q79 0 137 -54.5t58 -129.5q0 -74 -58 -128t-137 -54zM657 940l-204 -487h405zM659 1587q30 0 49 19t19 53q0 67 -68 74q-29 0 -48 -20t-19 -54
t19 -53t48 -19z" />
    <glyph glyph-name="ae" unicode="&#xe6;" horiz-adv-x="1454" 
 />
    <glyph glyph-name="ccedilla" unicode="&#xe7;" horiz-adv-x="905" 
 />
    <glyph glyph-name="egrave" unicode="&#xe8;" horiz-adv-x="1171" 
d="M152 0v1393h886v-195h-667v-399h592v-191h-592v-413h696v-195h-915zM547 1487l-174 311h231l103 -311h-160z" />
    <glyph glyph-name="eacute" unicode="&#xe9;" horiz-adv-x="1171" 
d="M152 0v1393h886v-195h-667v-399h592v-191h-592v-413h696v-195h-915zM541 1487l102 311h231l-174 -311h-159z" />
    <glyph glyph-name="ecircumflex" unicode="&#xea;" horiz-adv-x="1171" 
d="M152 0v1393h886v-195h-667v-399h592v-191h-592v-413h696v-195h-915zM352 1493l264 311h11l264 -311h-162l-106 88l-109 -88h-162z" />
    <glyph glyph-name="edieresis" unicode="&#xeb;" horiz-adv-x="1171" 
d="M152 0v1393h886v-195h-667v-399h592v-191h-592v-413h696v-195h-915zM786 1487q-44 0 -80 33.5t-36 83.5q0 49 36 82.5t80 33.5q47 0 82 -33.5t35 -82.5q0 -50 -35 -83.5t-82 -33.5zM455 1487q-45 0 -81 33.5t-36 83.5q0 49 36 82.5t81 33.5q46 0 81 -33.5t35 -82.5
q0 -50 -35 -83.5t-81 -33.5z" />
    <glyph glyph-name="igrave" unicode="&#xec;" horiz-adv-x="535" 
d="M158 0v1393h219v-1393h-219zM193 1487l-175 311h232l102 -311h-159z" />
    <glyph glyph-name="iacute" unicode="&#xed;" horiz-adv-x="535" 
d="M158 0v1393h219v-1393h-219zM186 1487l103 311h231l-174 -311h-160z" />
    <glyph glyph-name="icircumflex" unicode="&#xee;" horiz-adv-x="535" 
d="M158 0v1393h219v-1393h-219zM-2 1493l264 311h10l265 -311h-162l-107 88l-108 -88h-162z" />
    <glyph glyph-name="idieresis" unicode="&#xef;" horiz-adv-x="535" 
d="M158 0v1393h219v-1393h-219zM432 1487q-44 0 -80.5 33.5t-36.5 83.5q0 49 36.5 82.5t80.5 33.5q46 0 81.5 -33.5t35.5 -82.5q0 -50 -35.5 -83.5t-81.5 -33.5zM100 1487q-44 0 -80 33.5t-36 83.5q0 49 36 82.5t80 33.5q46 0 81.5 -33.5t35.5 -82.5q0 -50 -35.5 -83.5
t-81.5 -33.5z" />
    <glyph glyph-name="eth" unicode="&#xf0;" horiz-adv-x="1139" 
 />
    <glyph glyph-name="ntilde" unicode="&#xf1;" horiz-adv-x="1415" 
d="M840 1513q-44 0 -80.5 10.5t-67.5 22.5q-23 9 -43.5 15t-38.5 6q-24 0 -37 -13t-22 -47l-139 19q14 96 62 152.5t120 56.5q43 0 80 -10.5t68 -22.5q23 -8 43.5 -14.5t37.5 -6.5q25 0 38 13.5t22 46.5l139 -19q-15 -96 -62.5 -152.5t-119.5 -56.5zM1249 -20l-893 935v-774
l-204 -141v1413h16l893 -936v916h205v-1413h-17z" />
    <glyph glyph-name="ograve" unicode="&#xf2;" horiz-adv-x="1606" 
d="M803 -18q-200 0 -363 92.5t-259.5 254t-96.5 367.5t96.5 367.5t259.5 254.5t363 93q199 0 362.5 -93t260 -254.5t96.5 -367.5t-96.5 -367.5t-260 -254t-362.5 -92.5zM803 180q144 0 255 67.5t173.5 184.5t62.5 264q0 148 -62.5 264.5t-173.5 184t-255 67.5
q-145 0 -255.5 -67.5t-173.5 -184t-63 -264.5q0 -147 63 -264t173.5 -184.5t255.5 -67.5zM729 1487l-174 311h231l103 -311h-160z" />
    <glyph glyph-name="oacute" unicode="&#xf3;" horiz-adv-x="1606" 
d="M803 -18q-200 0 -363 92.5t-259.5 254t-96.5 367.5t96.5 367.5t259.5 254.5t363 93q199 0 362.5 -93t260 -254.5t96.5 -367.5t-96.5 -367.5t-260 -254t-362.5 -92.5zM803 180q144 0 255 67.5t173.5 184.5t62.5 264q0 148 -62.5 264.5t-173.5 184t-255 67.5
q-145 0 -255.5 -67.5t-173.5 -184t-63 -264.5q0 -147 63 -264t173.5 -184.5t255.5 -67.5zM723 1487l102 311h232l-174 -311h-160z" />
    <glyph glyph-name="ocircumflex" unicode="&#xf4;" horiz-adv-x="1606" 
d="M803 -18q-200 0 -363 92.5t-259.5 254t-96.5 367.5t96.5 367.5t259.5 254.5t363 93q199 0 362.5 -93t260 -254.5t96.5 -367.5t-96.5 -367.5t-260 -254t-362.5 -92.5zM803 180q144 0 255 67.5t173.5 184.5t62.5 264q0 148 -62.5 264.5t-173.5 184t-255 67.5
q-145 0 -255.5 -67.5t-173.5 -184t-63 -264.5q0 -147 63 -264t173.5 -184.5t255.5 -67.5zM535 1493l264 311h10l264 -311h-162l-106 88l-109 -88h-161z" />
    <glyph glyph-name="otilde" unicode="&#xf5;" horiz-adv-x="1606" 
d="M918 1513q-44 0 -80.5 10.5t-68.5 22.5q-23 9 -43 15t-38 6q-24 0 -37.5 -13t-21.5 -47l-140 19q15 96 63 152.5t120 56.5q43 0 80 -10.5t68 -22.5q23 -8 43 -14.5t38 -6.5q25 0 38 13.5t22 46.5l139 -19q-15 -96 -62.5 -152.5t-119.5 -56.5zM803 -18q-200 0 -363 92.5
t-259.5 254t-96.5 367.5t96.5 367.5t259.5 254.5t363 93q199 0 362.5 -93t260 -254.5t96.5 -367.5t-96.5 -367.5t-260 -254t-362.5 -92.5zM803 180q144 0 255 67.5t173.5 184.5t62.5 264q0 148 -62.5 264.5t-173.5 184t-255 67.5q-145 0 -255.5 -67.5t-173.5 -184
t-63 -264.5q0 -147 63 -264t173.5 -184.5t255.5 -67.5z" />
    <glyph glyph-name="odieresis" unicode="&#xf6;" horiz-adv-x="1606" 
d="M803 -18q-200 0 -363 92.5t-259.5 254t-96.5 367.5t96.5 367.5t259.5 254.5t363 93q199 0 362.5 -93t260 -254.5t96.5 -367.5t-96.5 -367.5t-260 -254t-362.5 -92.5zM803 180q144 0 255 67.5t173.5 184.5t62.5 264q0 148 -62.5 264.5t-173.5 184t-255 67.5
q-145 0 -255.5 -67.5t-173.5 -184t-63 -264.5q0 -147 63 -264t173.5 -184.5t255.5 -67.5zM969 1487q-45 0 -81 33.5t-36 83.5q0 49 36 82.5t81 33.5q46 0 81 -33.5t35 -82.5q0 -50 -35 -83.5t-81 -33.5zM637 1487q-45 0 -81 33.5t-36 83.5q0 49 36 82.5t81 33.5
q46 0 81.5 -33.5t35.5 -82.5q0 -50 -35.5 -83.5t-81.5 -33.5z" />
    <glyph glyph-name="divide" unicode="&#xf7;" 
 />
    <glyph glyph-name="oslash" unicode="&#xf8;" horiz-adv-x="1010" 
 />
    <glyph glyph-name="ugrave" unicode="&#xf9;" horiz-adv-x="1350" 
d="M676 -18q-152 0 -272.5 56.5t-190.5 170t-70 283.5v901h219v-889q0 -168 81 -246t233 -78q150 0 230.5 78t80.5 246v889h219v-901q0 -170 -70 -283.5t-190 -170t-270 -56.5zM600 1487l-174 311h231l103 -311h-160z" />
    <glyph glyph-name="uacute" unicode="&#xfa;" horiz-adv-x="1350" 
d="M676 -18q-152 0 -272.5 56.5t-190.5 170t-70 283.5v901h219v-889q0 -168 81 -246t233 -78q150 0 230.5 78t80.5 246v889h219v-901q0 -170 -70 -283.5t-190 -170t-270 -56.5zM594 1487l102 311h232l-174 -311h-160z" />
    <glyph glyph-name="ucircumflex" unicode="&#xfb;" horiz-adv-x="1350" 
d="M676 -18q-152 0 -272.5 56.5t-190.5 170t-70 283.5v901h219v-889q0 -168 81 -246t233 -78q150 0 230.5 78t80.5 246v889h219v-901q0 -170 -70 -283.5t-190 -170t-270 -56.5zM406 1493l264 311h10l264 -311h-162l-106 88l-109 -88h-161z" />
    <glyph glyph-name="udieresis" unicode="&#xfc;" horiz-adv-x="1350" 
d="M676 -18q-152 0 -272.5 56.5t-190.5 170t-70 283.5v901h219v-889q0 -168 81 -246t233 -78q150 0 230.5 78t80.5 246v889h219v-901q0 -170 -70 -283.5t-190 -170t-270 -56.5zM840 1487q-45 0 -81 33.5t-36 83.5q0 49 36 82.5t81 33.5q46 0 81 -33.5t35 -82.5
q0 -50 -35 -83.5t-81 -33.5zM508 1487q-45 0 -81 33.5t-36 83.5q0 49 36 82.5t81 33.5q46 0 81.5 -33.5t35.5 -82.5q0 -50 -35.5 -83.5t-81.5 -33.5z" />
    <glyph glyph-name="yacute" unicode="&#xfd;" horiz-adv-x="868" 
 />
    <glyph glyph-name="thorn" unicode="&#xfe;" horiz-adv-x="1010" 
 />
    <glyph glyph-name="ydieresis" unicode="&#xff;" horiz-adv-x="868" 
 />
    <glyph glyph-name="dotlessi" unicode="&#x131;" horiz-adv-x="514" 
 />
    <glyph glyph-name="circumflex" unicode="&#x2c6;" horiz-adv-x="1024" 
 />
    <glyph glyph-name="caron" unicode="&#x2c7;" horiz-adv-x="1024" 
 />
    <glyph glyph-name="uni02C9" unicode="&#x2c9;" horiz-adv-x="1024" 
 />
    <glyph glyph-name="breve" unicode="&#x2d8;" horiz-adv-x="1024" 
 />
    <glyph glyph-name="dotaccent" unicode="&#x2d9;" horiz-adv-x="1024" 
 />
    <glyph glyph-name="ring" unicode="&#x2da;" horiz-adv-x="1024" 
 />
    <glyph glyph-name="ogonek" unicode="&#x2db;" horiz-adv-x="1024" 
 />
    <glyph glyph-name="tilde" unicode="&#x2dc;" horiz-adv-x="1024" 
 />
    <glyph glyph-name="hungarumlaut" unicode="&#x2dd;" horiz-adv-x="1024" 
 />
    <glyph glyph-name="endash" unicode="&#x2013;" horiz-adv-x="1108" 
 />
    <glyph glyph-name="emdash" unicode="&#x2014;" horiz-adv-x="2048" 
 />
    <glyph glyph-name="quoteleft" unicode="&#x2018;" horiz-adv-x="557" 
 />
    <glyph glyph-name="quoteright" unicode="&#x2019;" horiz-adv-x="557" 
 />
    <glyph glyph-name="quotesinglbase" unicode="&#x201a;" horiz-adv-x="557" 
 />
    <glyph glyph-name="quotedblleft" unicode="&#x201c;" horiz-adv-x="910" 
 />
    <glyph glyph-name="quotedblright" unicode="&#x201d;" horiz-adv-x="910" 
 />
    <glyph glyph-name="quotedblbase" unicode="&#x201e;" horiz-adv-x="910" 
 />
    <glyph glyph-name="dagger" unicode="&#x2020;" 
 />
    <glyph glyph-name="daggerdbl" unicode="&#x2021;" 
 />
    <glyph glyph-name="bullet" unicode="&#x2022;" horiz-adv-x="1024" 
 />
    <glyph glyph-name="ellipsis" unicode="&#x2026;" horiz-adv-x="2048" 
 />
    <glyph glyph-name="guilsinglleft" unicode="&#x2039;" horiz-adv-x="631" 
 />
    <glyph glyph-name="guilsinglright" unicode="&#x203a;" horiz-adv-x="631" 
 />
    <glyph glyph-name="fraction" unicode="&#x2044;" horiz-adv-x="342" 
 />
    <glyph glyph-name="fraction" unicode="&#x2215;" horiz-adv-x="342" 
 />
    <glyph glyph-name="franc" unicode="&#x20a3;" 
 />
    <glyph glyph-name="lira" unicode="&#x20a4;" 
 />
    <glyph glyph-name="peseta" unicode="&#x20a7;" horiz-adv-x="2028" 
 />
    <glyph glyph-name="Euro" unicode="&#x20ac;" 
 />
    <glyph glyph-name="uni2116" unicode="&#x2116;" horiz-adv-x="2271" 
 />
    <glyph glyph-name="trademark" unicode="&#x2122;" horiz-adv-x="1497" 
 />
    <glyph glyph-name="partialdiff" unicode="&#x2202;" 
 />
    <glyph glyph-name="Delta" unicode="&#x2206;" horiz-adv-x="1081" 
 />
    <glyph glyph-name="product" unicode="&#x220f;" horiz-adv-x="1515" 
 />
    <glyph glyph-name="summation" unicode="&#x2211;" horiz-adv-x="1206" 
 />
    <glyph glyph-name="minus" unicode="&#x2212;" 
 />
    <glyph glyph-name="radical" unicode="&#x221a;" 
 />
    <glyph glyph-name="infinity" unicode="&#x221e;" 
 />
    <glyph glyph-name="integral" unicode="&#x222b;" horiz-adv-x="665" 
 />
    <glyph glyph-name="approxequal" unicode="&#x2248;" 
 />
    <glyph glyph-name="lessequal" unicode="&#x2264;" 
 />
    <glyph glyph-name="greaterequal" unicode="&#x2265;" 
 />
    <glyph glyph-name="uniF001" unicode="&#xf001;" horiz-adv-x="1073" 
 />
    <glyph glyph-name="uniF001" unicode="&#xfb01;" horiz-adv-x="1073" 
 />
    <glyph glyph-name="uniF002" unicode="&#xf002;" horiz-adv-x="1081" 
 />
    <glyph glyph-name="uniF002" unicode="&#xfb02;" horiz-adv-x="1081" 
 />
  </font>
</defs>
</svg>
